<svg width="1440" height="320" viewBox="0 0 1440 320" fill="none" xmlns="http://www.w3.org/2000/svg">
  <path d="M0 160L48 176C96 192 192 224 288 224C384 224 480 192 576 186.7C672 181 768 203 864 213.3C960 224 1056 224 1152 208C1248 192 1344 160 1392 144L1440 128V320H1392C1344 320 1248 320 1152 320C1056 320 960 320 864 320C768 320 672 320 576 320C480 320 384 320 288 320C192 320 96 320 48 320H0V160Z" fill="url(#paint0_linear)"/>
  <defs>
    <linearGradient id="paint0_linear" x1="720" y1="128" x2="720" y2="320" gradientUnits="userSpaceOnUse">
      <stop stop-color="#0EA5E9" stop-opacity="0.1"/>
      <stop offset="1" stop-color="#0EA5E9" stop-opacity="0"/>
    </linearGradient>
  </defs>
</svg>
